<svg fill="" t="1699715279698" class="icon" viewBox="0 0 1025 1024" version="1.1" xmlns="http://www.w3.org/2000/svg"
  p-id="7895" width="32" height="32">
  <path
    d="M512.554146 566.299065a1156657.604169 1156657.604169 0 0 0 163.101163 162.926074c15.010672 14.990816 39.349764 14.990816 54.365851 0 15.005256-15.001646 15.005256-39.313664 0-54.302674l-163.104773-162.926075c54.365851-54.30448 108.738922-108.60896 163.104773-162.915245 15.005256-14.989011 15.005256-39.313664 0-54.302674-15.016087-15.001646-39.355179-15.001646-54.365851 0-54.373071 54.302675-108.738922 108.60896-163.101163 162.913439l-163.093943-162.913439c-15.016087-15.001646-39.355179-15.001646-54.362241 0-15.016087 14.989011-15.016087 39.313664 0 54.302674l163.092138 162.915245c-54.362241 54.302675-108.728092 108.61979-163.092138 162.926075-15.016087 14.989011-15.016087 39.301028 0 54.302674 15.007061 14.990816 39.346154 14.990816 54.362241 0 54.365851-54.30448 108.728092-108.610765 163.093943-162.926074z"
    p-id="7896"></path>
  <path
    d="M0 921.594946V102.394224C0 45.84067 45.889406 0 102.507941 0h820.094214c56.618535 0 102.516966 45.838865 102.516967 102.394224v819.200722c0 56.555359-45.900237 102.405054-102.516967 102.405054H102.507941C45.889406 1024 0 978.150304 0 921.594946z m948.228238 0V102.394224c0-18.097282-7.498116-25.597202-25.626083-25.597202H102.507941c-18.118942 0-25.626083 7.501726-25.626083 25.597202v819.200722c0 18.108112 7.508946 25.609837 25.626083 25.609837h820.094214c18.127967-0.001805 25.626083-7.501726 25.626083-25.609837z"
    p-id="7897"></path>
</svg>