<svg fill="" t="1681366445056" className="icon" viewBox="0 0 4023 1024" version="1.1"
  xmlns="http://www.w3.org/2000/svg" p-id="1379" width="112" height="70" stroke="currentColor">
  <path
    d="M440.556824 559.457521c19.021325 19.979233 37.413167 41.49112 55.148158 64.590399l5.583238 1.286334c33.88259 5.747451 72.691567-34.867868 116.317454-121.900692 24.796144-35.2784 44.556427-55.805009 59.417693-61.579829h2.162136c-23.427704 58.815579-39.356353 116.317454-47.895423 172.779315l-2.162136-0.848433c0 1.176859 0.656852 2.134767 2.162136 3.010569l-5.145336 11.52227-8.53907 50.03019c0 2.901094-0.766327 4.269535-2.162136 4.269535l1.286334 3.859003-11.960171 89.386542c-0.656852 0.547376-2.025292 0.547376-4.269535 0 0 1.067384 1.067384 2.134767 3.421102 2.983201-3.421102 20.52661-11.358057 29.613055-23.537179 27.368813l-5.99377-0.848434c-33.335214-6.294827-94.805568-80.409572-184.301586-222.371604-29.065679-51.015467-50.769148-87.032825-65.00093-108.188917l-8.128538 59.417693a17.51604 17.51604 0 0 0 0 9.414872l-2.134767 5.145336 0.848433 4.269535c0 2.873725-1.067384 5.473763-3.010569 7.690637v18.829743l-3.393733 8.539069a17.51604 17.51604 0 0 1 0 9.414872c-0.656852 1.505285-1.61476 1.915817-3.01057 1.286334v12.835973l-1.258965 9.387503c-1.505285 10.071723-2.463193 23.099278-3.010569 39.356353-0.848433 2.025292-1.915817 3.010569-3.01057 3.010569 0 26.821437-1.14949 54.080774-3.393733 81.668538 0 0.547376-1.094753 0.547376-3.010569 0l0.875802 12.398072-0.848433 5.555869c-0.875802 1.915817-4.926386 4.816911-11.98754 8.53907l-10.263305-3.421102c-53.889192-21.156092-140.484116-90.645508-259.565821-208.687198C3.723203 548.345783 0.083151 542.379382 0.083151 541.50358l0.848433-5.117968a902.951872 902.951872 0 0 1 212.984101-62.455631l4.269535-28.627778c0.848433-5.145337 1.477916-8.675914 2.134767-10.701206a42.750086 42.750086 0 0 1-0.848433-6.404302l6.404302-23.099278-2.134767-4.269535 3.010569-4.296903-2.162136-5.555869c2.244243-4.269535 4.077953-5.99377 5.555869-5.117968l0.875802-12.863342 0.821064-5.117968c0.875802-4.789542 1.505285-8.320119 2.162137-10.673837l-0.848434-0.848433c11.960171-59.25348 19.650808-91.110778 23.07191-95.380313v-4.269535c1.395809-3.640052 2.162136-7.280104 2.162136-10.673837h-0.875802c-32.486781 11.960171-56.653443 16.558132-72.253666 13.684407C140.758848 220.111611 115.743754 182.041593 110.379466 145.476859c9.086446-6.513777 45.432229-16.448656 109.064719-29.914112 88.07284-28.764622 172.012988-47.703841 251.875185-56.872394l43.625887-2.162136-1.286334 2.162136c9.934879-3.640052 32.596256-3.010569 67.984131 2.134768 62.127205 11.111738 108.736293 66.506215 139.854633 165.909743-0.875802 4.269535-0.656852 10.482255 0.821065 18.391842-6.294827 48.524905-69.16099 102.085672-188.57112 160.791776-62.209312 20.52661-117.494313 26.930912-165.909744 19.240275 0 0.656852 0.191582 1.286334 0.821065 2.134767l-15.791805 15.819174c23.29086 28.874098 52.602858 67.600968 87.662307 116.317455zM346.462846 205.797722c4.816911 11.98754 7.280104 33.800484 7.280104 65.438832 0 1.505285-0.738958 1.915817-2.134768 1.286334l-0.848433 28.655147-4.296903 28.655147-0.848434 16.694976-3.421101 4.242166c-0.629483 11.440164-1.286334 19.979233-2.134768 25.671946l-0.848433 7.252736v7.280104c71.186282-8.210644 128.715527-33.362583 172.341414-75.264235 72.910517-69.790473 114.264793-119.848031 123.980722-150.09057l-2.9832-1.286334c-72.691567-13.903357-167.415028 0.218951-283.951433 42.339553l-2.134767-0.875802zM39.412135 562.905992l-1.258966 3.010569c5.117968 0.848433 33.335214 22.442427 84.651738 64.590398 33.909959 28.189877 59.664012 43.7901 77.426372 46.58172 2.244243 0.875802 3.612683-0.848433 4.269534-5.117968 0-42.969036 0.629483-93.875028 2.134768-152.663238l3.010569-6.431671c-2.052661-1.368441-2.381087-4.269535-0.875802-8.53907 0-1.395809 0.957908-1.724235 3.01057-0.875802-2.052661-2.76425-2.052661-9.934879 0-21.347674-91.849736 41.053219-149.269505 67.984131-172.368783 80.792736z m0 0M948.823047 281.93776c38.179494 0 72.499985 23.400335 103.070949 70.118898 4.269535 22.551902 5.665344 36.236308 4.269534 41.053219-14.313889-19.021325-22.442427-28.655147-24.358243-28.655147-9.414872 18.610793-14.450733 31.008865-14.970741 37.221586l3.01057 5.555869c-4.105322 0-12.753867 32.076249-26.109848 96.201377-0.848433 1.505285-2.353718 2.162136-4.269534 2.162136 1.368441 3.421102 2.134767 5.856926 2.134767 7.252735-4.269535 26.821437-8.566438 40.204786-12.835973 40.204786-0.848433 1.505285-0.218951 2.134767 2.134767 2.134768l-5.555869 13.684406-3.010569 22.661377c-0.821064 4.077953-0.629483 7.170629 0.875802 9.414872l-3.831634 6.404302c1.067384 2.901094 1.368441 6.732728 0.821064 11.549639 0 1.505285-1.040015 2.134767-2.9832 2.134767l2.134767 5.145337-1.258965 7.690636c0 1.505285-1.094753 2.134767-3.01057 2.134768l2.134768 5.99377-2.134768 7.690636-2.134767 31.665717c60.731396-21.922419 112.157395-62.127205 154.360104-120.614358 20.52661-24.796144 35.305769-55.586059 44.50169-92.369744 0.848433-1.368441 0.547376-2.134767-0.875802-2.134767 33.909959-101.456189 56.461861-152.225337 67.600967-152.225337 31.829929 13.985463 46.691195 28.107771 44.446952 42.312185-1.477916 9.743297-7.061154 34.648917-16.694975 74.853703h-2.107399c0 1.505285 0.629483 2.134767 2.134767 2.134767-5.77482 19.979233-9.305396 31.638348-10.673837 35.059449 0 1.505285 0.629483 2.134767 2.107399 2.134768-4.269535 14.861265-7.471686 22.250845-9.387503 22.250845 0 1.505285 0.957908 2.134767 2.983201 2.134767a1609.505143 1609.505143 0 0 0-25.234046 119.738556h-3.421101l2.134767 6.404302-6.404302 39.356353c24.796144-15.600223 51.946007-39.985836 81.668537-73.129468 43.844838-61.579829 68.203082-106.464682 73.129468-134.709296v-28.655147h5.145337c3.612683 30.570964 2.983201 61.360878-2.162136 92.369743l-2.983201 18.829743c-10.591731 66.506215-52.602858 131.479777-126.170227 195.002791l-18.802374 2.134768c-63.057745-29.613055-90.973934-65.00093-83.803305-106.05415-63.605121 91.822367-111.199486 137.692497-142.837834 137.692497-30.570964 0-71.213651-27.587763-121.873323-82.51697-26.301429-40.232155-40.423737-81.039055-42.339554-122.749126h2.134768c-2.353718-14.75179-2.353718-42.969036 0-84.679107 33.581533-127.9492 73.348418-191.992222 119.328023-191.992221z m0 0M1569.739303 5.676963h7.280104c19.021325 2.025292 43.187987 17.844466 72.253666 47.457521 8.238013 6.294827 11.659114 24.714038 10.263304 55.175527v4.269535c0 3.421102-1.696866 5.145337-5.117968 5.145337h-2.134767l-4.296904-17.98131h-2.9832l-83.830674 257.458422c30.160432-22.442427 53.47866-33.800484 69.708366-33.800484 29.613055 6.294827 60.40297 32.076249 92.369744 77.426371 24.823513 40.834269 36.455259 79.31482 35.086818 115.441653l-4.296904 4.296903c2.791619 6.842203 4.296904 13.13703 4.296904 18.802375h2.134767c23.947711-46.390138 42.859561-125.513376 56.872393-237.342345h6.404302l1.286335 32.924682-1.286335 10.673837c-5.747451 153.976941-31.090971 276.151321-76.112668 366.523141-5.77482 9.168552-9.305396 13.684406-10.673837 13.684406h-5.145337c-48.223848-21.922419-80.737998-53.998668-97.51508-96.228745-3.722159-5.665344-5.555869-10.920156-5.555869-15.819174l1.286334-17.105508c0-12.835973 11.98754-73.567369 35.935252-182.194187v-2.134767c0-2.244243-0.766327-10.044354-2.162137-23.509811 2.271611 0 3.421102-0.957908 3.421102-3.010569-2.326349 0-3.421102-0.629483-3.421102-2.134767-32.486781 4.926386-76.961102 34.977343-133.422962 90.234975-10.564362 14.861265-15.819174 27.587763-15.819174 38.070019 1.915817 0 5.555869 1.505285 10.701206 4.269535v4.296903h-13.684407c-8.019062 31.638348-13.054924 72.582092-14.97074 122.721757l-1.286334 27.368813 2.134767 12.835973h-2.134767c0.848433 4.269535 1.286334 7.14326 1.286334 8.53907-0.848433 24.796144 0.848433 55.175527 5.145337 91.083409-37.440536-22.551902-65.657782-72.691567-84.679107-150.528471-2.901094-11.330689-5.99377-47.01962-9.414872-106.902583 0-1.368441 0.957908-2.134767 3.01057-2.134767l-2.162137-13.684406 1.286335-32.076249c0-1.094753 0.957908-1.724235 3.010569-1.724235l-3.010569-4.269535c0-1.368441 0.957908-2.134767 3.010569-2.134767 0-2.76425-1.094753-4.269535-3.010569-4.269535 2.791619-80.601154 24.604563-179.8131 65.411462-297.635839h2.162136l-2.134767-5.555869C1511.361625 73.250562 1542.917866 21.058236 1569.739303 5.676963z m0 0M2120.427185 281.93776h9.414872c54.956576 0 116.098504 38.480551 183.453152 115.469021 25.343521 45.979606 38.070019 77.399003 38.070019 94.50451v2.134768c-0.848433 0-11.549639-12.097015-32.076249-36.345784 1.368441 61.579829 12.069646 125.622851 32.076249 191.992222 21.89505 0 40.314261-33.88259 55.175526-101.757246v-13.684406l-2.162136-12.863342h5.145337c9.934879 36.811053 14.970741 70.064161 14.97074 99.649847v4.296904c0 32.486781-8.566438 55.476584-25.671946 68.832564h-12.398072c-33.362583-9.934879-61.360878-32.596256-83.803305-67.984131v-0.848433h-3.421102c-23.099278 64.125128-56.653443 106.464682-100.49828 126.991291-18.282367 8.566438-30.269907 12.835973-35.935251 12.835973h-27.779345c-36.564734 0-87.990733-38.179494-154.360105-114.620588-25.452996-28.189877-38.097387-65.520938-38.097387-112.02055h2.162136l-2.162136-4.296904V525.684406c0-1.368441 0.656852-2.134767 2.162136-2.134767 0-1.368441-0.766327-2.134767-2.162136-2.134767 0-36.783684 16.913926-86.184392 50.905992-148.393703 40.724793-60.731396 83.064347-91.083409 126.991291-91.083409z m-42.312184 375.034841a27.095125 27.095125 0 0 1 2.134767 6.404303h-2.134767c1.368441 9.195921 5.555869 13.684406 12.398072 13.684406 51.535475 0 96.420328-24.358243 134.709296-73.129468 33.88259-53.01339 50.878623-109.885783 50.878623-170.617179l5.117968-3.010569c7.061154 0 18.829743 7.499055 35.086818 22.250845-27.697239-50.139665-49.619658-75.264235-65.876732-75.264236h-16.667607c-39.684779 0-82.434864 50.905992-128.277626 152.663238l-17.105508 65.411463c-5.473763 22.059263-8.894864 42.585873-10.263304 61.579829z m0 0M2620.099601 287.493629c18.501317 0 42.558504 19.021325 72.281034 56.872393 0 36.236308-19.568701 127.319717-58.569259 273.250227 40.396368-48.442799 65.192512-92.889751 74.388433-133.422963h6.431671c-14.861265 110.351053-30.379382 180.688902-46.609088 210.821965-22.031894 40.232155-37.960543 63.495646-47.895423 70.146267h-7.280104c-75.045285-29.722531-112.485821-79.53377-112.48582-149.680037v-20.937142c0-1.915817 0.656852-3.010569 2.162136-3.010569 0-2.244243-0.766327-3.421102-2.134768-3.421102 7.909587-46.390138 23.50981-105.725724 46.609089-177.897283 32.486781-81.778013 56.872393-122.721757 73.129467-122.721756z m224.53374 24.358243c23.29086 0 48.087004 22.989803 74.388433 68.859933 7.718005 21.703469 11.549639 46.089081 11.549639 73.129468 0 31.638348-5.747451 83.611723-17.105508 155.673807v2.983201h2.134767c45.350123-98.035087 68.0115-169.987696 68.0115-215.939933v-29.96885h6.404302c6.842203 52.493383 10.263305 100.936182 10.263305 145.410502v2.134767c0 79.013763-23.29086 152.663238-69.708366 221.08527l-17.105508 11.98754c-62.209312-26.191954-93.218176-57.310294-93.218176-93.245545v-24.358243c0-24.166662 10.892787-88.948642 32.924681-194.154358 0-1.915817-1.067384-3.010569-3.010569-3.01057 5.692713-29.585687 8.566438-54.299725 8.566438-73.950532 0-3.640052-1.915817-5.583238-5.555869-5.583238-40.204786 9.195921-75.893718 29.941481-106.902582 62.455631v3.421102h-5.145337v-3.421102c31.008865-56.981868 65.548307-91.52131 103.50885-103.50885z m136.844064 38.070019h5.117968v5.145336h-5.117968v-5.145336z m0 0M3274.81634 297.756933c44.474321 0 86.074916 30.789914 124.883893 92.369744l-3.010569 22.223476h2.134767c18.200261-43.817469 31.665716-65.849364 40.232155-65.849364h2.107399c42.969036 17.76236 62.455631 40.642687 58.158727 68.859933-4.926386 33.362583-21.593993 69.708366-50.03019 109.03735-9.195921 0-28.846729 73.895795-59.00716 221.523171l3.010569 4.269535-4.296903 6.404302-0.848434 27.368813h-3.421101l2.134767 5.583238v5.117968c-7.690636 52.164957-3.421102 120.285932 12.835973 204.417663l-0.875802 6.404302c-12.288597 7.718005-23.728761 11.549639-34.211016 11.549639h-6.404302c-124.336517 0-235.098102-13.027555-332.257387-38.918452-26.219323-17.734991-38.590026-32.295199-37.221586-43.598519 66.506215-59.335586 127.128135-101.374083 182.166818-126.170227 52.192326-24.577194 95.161362-48.962806 129.180797-73.129468h2.107398c-90.973934 70.666275-172.231939 140.265166-243.746647 208.687198 84.022255 11.98754 146.696837 17.98131 187.750056 17.98131 37.303692 0 61.990361-6.021139 73.950532-17.98131-11.111738-108.079442-14.943372-172.642471-11.52227-193.716457 0-1.505285 0.629483-2.134767 2.134768-2.134768l2.134767-26.520379-7.280104-7.252736 7.280104-32.924681c-31.966773 11.960171-58.487153 17.953941-79.53377 17.953941-47.348046-14.779159-87.990733-48.004898-121.900692-99.622479-8.320119 0-14.313889-21.073986-17.953941-63.304064h3.421101c0-2.244243-1.176859-3.421102-3.421101-3.421101a449.560119 449.560119 0 0 1 93.218176-188.598489c31.884667-31.008865 61.278772-46.609088 88.127577-46.609089z m-58.158727 297.63584l-1.286334 4.269534h2.134767c54.436569-15.381273 106.2731-56.24291 155.673808-122.721756l12.835973-38.04265v-2.162136h-2.134767l-10.701206 22.250845h-6.404302c0.821064-5.692713-4.488485-29.722531-15.846543-72.281035h-4.269535c-16.257075 5.117968-41.682702 31.638348-76.112668 79.53377-24.796144 51.64495-42.777454 94.723461-53.889193 129.153428z m176.610949-177.897284l-0.821064 6.404303h2.107399l0.848433-6.404303h-2.134768z m-5.117968 7.690637l-1.286334 9.414871h4.269535l1.286334-9.414871h-4.269535z m0 0M3870.088019 287.493629c55.55869 36.564734 89.769706 81.011686 102.633048 133.422962l-3.421102 6.404302c-1.176859 4.926386-21.621362 4.187428-61.169296-2.134767-5.747451 4.077953-12.398072 5.035862-20.088709 3.010569l-3.421101-0.875802c0.848433-1.368441 1.286334-3.941109 1.286334-7.690636a218.047332 218.047332 0 0 0-88.127577 27.806714c-32.486781 21.156092-54.737626 46.499613-66.697797 76.085299 104.548865 46.526982 167.852929 80.737998 189.884823 102.633048 25.863528 36.263677 35.2784 63.221958 28.217246 80.847473-15.381273 23.099278-57.091344 40.615318-124.856524 52.602858-54.546044 4.269535-96.119271 2.572668-124.883893-5.145336-62.209312-14.861265-99.211946-48.716487-111.172117-101.757246 0-19.705545 2.353718-38.699501 7.252735-57.310294h1.286334l-1.286334-3.831634c11.330689-29.941481 30.789914-44.173264 58.158727-42.777455l-0.848433 5.555869c-8.53907-1.368441-14.313889 2.463193-17.105508 11.549639l-4.269535 8.53907c-23.947711 65.657782-23.537179 101.264607 1.286334 106.929952h8.53907l-1.286334 2.134767c47.26594 4.269535 106.601526 0 177.897283-12.863342 41.600595-16.229706 63.495646-25.726684 65.876732-28.627778l-144.124168-64.590398c-75.592661-64.973562-102.085672-128.086044-79.53377-189.419554 7.033785-14.231783 12.398072-22.770852 15.819174-25.671946a7.280104 7.280104 0 0 1-2.134767-7.252736c4.269535 1.477916 11.330689-6.021139 21.347674-22.250844 31.036234-28.217246 60.950346-44.063789 89.824443-47.457522 29.613055-6.541146 57.939777-5.77482 85.117008 2.134768z m0 0"
    p-id="1380"></path>
</svg>