<svg fill="" t="1700033103698" class="icon" viewBox="0 0 1024 1024" version="1.1" xmlns="http://www.w3.org/2000/svg" p-id="4950"
  width="32" height="32">
  <path
    d="M867.995 459.647h-711.99c-27.921 0-52.353 24.434-52.353 52.353s24.434 52.353 52.353 52.353h711.99c27.921 0 52.353-24.434 52.353-52.353s-24.434-52.353-52.353-52.353z"
    p-id="4951"></path>
  <path
    d="M867.995 763.291h-711.99c-27.921 0-52.353 24.434-52.353 52.353s24.434 52.353 52.353 52.353h711.99c27.921 0 52.353-24.434 52.353-52.353s-24.434-52.353-52.353-52.353z"
    p-id="4952"></path>
  <path
    d="M156.005 260.709h711.99c27.921 0 52.353-24.434 52.353-52.353s-24.434-52.353-52.353-52.353h-711.99c-27.921 0-52.353 24.434-52.353 52.353s24.434 52.353 52.353 52.353z"
    p-id="4953"></path>
</svg>