<svg fill="none" t="1698305587600" class="icon" viewBox="0 0 1024 1024" version="1.1" xmlns="http://www.w3.org/2000/svg" p-id="5165"
  width="32" height="32">
  <path
    d="M512 929.959184c-230.4 0-417.959184-187.559184-417.959184-417.959184s187.559184-417.959184 417.959184-417.959184 417.959184 187.559184 417.959184 417.959184-187.559184 417.959184-417.959184 417.959184z m0-794.122449c-207.412245 0-376.163265 168.75102-376.163265 376.163265s168.75102 376.163265 376.163265 376.163265 376.163265-168.75102 376.163265-376.163265-168.75102-376.163265-376.163265-376.163265z"
    fill="none" p-id="5166"></path>
  <path
    d="M718.367347 538.122449h-208.979592c-11.493878 0-20.897959-9.404082-20.897959-20.897959s9.404082-20.897959 20.897959-20.897959h208.979592c11.493878 0 20.897959 9.404082 20.897959 20.897959s-9.404082 20.897959-20.897959 20.897959z"
    fill="none" p-id="5167"></path>
  <path
    d="M509.387755 538.122449c-11.493878 0-20.897959-9.404082-20.897959-20.897959V256c0-11.493878 9.404082-20.897959 20.897959-20.897959s20.897959 9.404082 20.897959 20.897959v261.22449c0 11.493878-9.404082 20.897959-20.897959 20.897959z"
    fill="none" p-id="5168"></path>
</svg>